<svg width="1227" height="611" viewBox="0 0 1227 611" fill="none" xmlns="http://www.w3.org/2000/svg">
<path d="M85.8859 63.8038C126.29 19.3954 188.345 -12.52 314.818 4.78557C441.29 22.0912 512.644 77.2845 605.652 37.6229C709.712 -6.75156 866.802 12.4419 950.917 37.6229C1035.03 62.8039 1009.08 57.5914 1135.02 114.835C1260.96 172.078 1227.87 207.135 1206.53 269.702C1185.18 332.27 1198.09 396.816 1206.53 463.175C1213.54 518.275 1204.14 539.127 1159.57 578.105C1115 617.083 1053.91 567.455 932.239 578.105C810.569 588.755 901.822 578.105 669.688 606.061C437.555 634.017 529.875 534.174 346.836 534.174C236.373 542.162 204.355 590.974 99.7608 534.174C-4.83312 477.375 -10.4271 391.288 8.50871 357.12C36.7899 306.089 15.0362 347.866 65.6081 269.702C112.792 212.351 23.9838 134.803 85.8859 63.8038Z" fill="#3222F6"/>
</svg>
